<svg width="134" height="78" viewBox="0 0 134 78" fill="none" xmlns="http://www.w3.org/2000/svg">
<path d="M89.4148 14.3445C85.763 12.6861 81.8787 11.7654 77.9412 11.625C74.1951 11.7491 70.4953 12.5878 67 14.1051C63.5047 12.588 59.8048 11.7494 56.0588 11.625C52.1213 11.7651 48.2369 12.6858 44.5852 14.3445C44.3374 14.4611 44.1259 14.6574 43.9773 14.9087C43.8287 15.1599 43.7496 15.4549 43.75 15.7564V48.8403C43.75 49.2473 43.8941 49.6377 44.1506 49.9255C44.4071 50.2133 44.7549 50.375 45.1176 50.375H88.8824C89.2451 50.375 89.5929 50.2133 89.8494 49.9255C90.1059 49.6377 90.25 49.2473 90.25 48.8403V15.7564C90.2499 15.455 90.1707 15.1603 90.0221 14.9091C89.8736 14.658 89.6623 14.4616 89.4148 14.3445ZM87.5147 16.8123V44.449C84.4309 43.2567 81.2019 42.6045 77.9412 42.5153C74.6804 42.6041 71.4513 43.2563 68.3676 44.449V16.8123C71.4355 15.5288 74.6688 14.8135 77.9412 14.6944C81.2135 14.814 84.4468 15.5293 87.5147 16.8123ZM86.4881 47.3015H69.3925C72.1495 46.2539 75.0313 45.6779 77.9412 45.5929C80.8509 45.682 83.7322 46.2622 86.4881 47.3138M46.4853 16.8123C49.5531 15.5288 52.7865 14.8135 56.0588 14.6944C59.3311 14.814 62.5644 15.5293 65.6324 16.8123V44.449C62.5482 43.2595 59.3192 42.6101 56.0588 42.5235C52.7981 42.6123 49.569 43.2645 46.4853 44.4572V16.8123ZM64.6057 47.3015H47.5101C50.2671 46.2539 53.149 45.6779 56.0588 45.5929C58.9686 45.682 61.8498 46.2622 64.6057 47.3138" fill="white"/>
<path d="M1.472 74V65.324H3.236V72.518H7.004V74H1.472ZM8.19378 74V67.796H9.86778V74H8.19378ZM8.17578 66.908V65.33H9.87978V66.908H8.17578ZM14.8662 74.12C14.5582 74.12 14.2922 74.08 14.0682 74C13.8442 73.92 13.6542 73.814 13.4982 73.682C13.3422 73.546 13.2142 73.396 13.1142 73.232C13.0142 73.068 12.9362 72.9 12.8802 72.728L12.6822 74H11.4102V65.084H13.1682V68.636C13.2442 68.504 13.3422 68.38 13.4622 68.264C13.5822 68.148 13.7222 68.046 13.8822 67.958C14.0422 67.87 14.2182 67.802 14.4102 67.754C14.6062 67.702 14.8142 67.676 15.0342 67.676C15.8062 67.676 16.4102 67.954 16.8462 68.51C17.2862 69.066 17.5062 69.85 17.5062 70.862C17.5062 71.518 17.4062 72.09 17.2062 72.578C17.0062 73.066 16.7102 73.446 16.3182 73.718C15.9262 73.986 15.4422 74.12 14.8662 74.12ZM14.4822 72.86C14.8582 72.86 15.1702 72.706 15.4182 72.398C15.6702 72.086 15.7962 71.566 15.7962 70.838C15.7962 70.194 15.6762 69.718 15.4362 69.41C15.2002 69.102 14.8782 68.948 14.4702 68.948C14.1782 68.948 13.9362 69.018 13.7442 69.158C13.5522 69.294 13.4082 69.502 13.3122 69.782C13.2202 70.062 13.1722 70.414 13.1682 70.838C13.1682 71.57 13.2762 72.09 13.4922 72.398C13.7122 72.706 14.0422 72.86 14.4822 72.86ZM18.7109 74V67.796H20.3969V69.266C20.4969 68.95 20.6369 68.674 20.8169 68.438C21.0009 68.198 21.2229 68.012 21.4829 67.88C21.7429 67.744 22.0369 67.676 22.3649 67.676C22.4209 67.676 22.4729 67.68 22.5209 67.688C22.5729 67.692 22.6109 67.7 22.6349 67.712V69.38C22.5989 69.364 22.5549 69.354 22.5029 69.35C22.4549 69.346 22.4109 69.342 22.3709 69.338C22.0269 69.31 21.7329 69.32 21.4889 69.368C21.2449 69.416 21.0469 69.498 20.8949 69.614C20.7429 69.73 20.6329 69.872 20.5649 70.04C20.4969 70.208 20.4629 70.396 20.4629 70.604V74H18.7109ZM26.3505 74.12C25.7425 74.12 25.2125 73.99 24.7605 73.73C24.3125 73.47 23.9645 73.102 23.7165 72.626C23.4725 72.15 23.3505 71.586 23.3505 70.934C23.3505 70.282 23.4725 69.712 23.7165 69.224C23.9645 68.736 24.3125 68.356 24.7605 68.084C25.2125 67.812 25.7445 67.676 26.3565 67.676C26.9685 67.676 27.4985 67.81 27.9465 68.078C28.3945 68.342 28.7405 68.718 28.9845 69.206C29.2285 69.694 29.3505 70.27 29.3505 70.934C29.3505 71.558 29.2305 72.11 28.9905 72.59C28.7545 73.066 28.4125 73.44 27.9645 73.712C27.5205 73.984 26.9825 74.12 26.3505 74.12ZM26.3565 72.818C26.6645 72.818 26.9125 72.728 27.1005 72.548C27.2885 72.368 27.4245 72.132 27.5085 71.84C27.5925 71.544 27.6345 71.222 27.6345 70.874C27.6345 70.546 27.5965 70.236 27.5205 69.944C27.4445 69.652 27.3125 69.416 27.1245 69.236C26.9365 69.056 26.6805 68.966 26.3565 68.966C26.0485 68.966 25.7985 69.052 25.6065 69.224C25.4185 69.392 25.2805 69.622 25.1925 69.914C25.1045 70.202 25.0605 70.522 25.0605 70.874C25.0605 71.198 25.1005 71.51 25.1805 71.81C25.2605 72.106 25.3945 72.348 25.5825 72.536C25.7705 72.724 26.0285 72.818 26.3565 72.818ZM35.4944 74.12C34.6624 74.12 34.0144 73.834 33.5504 73.262C33.0864 72.686 32.8544 71.886 32.8544 70.862C32.8544 70.214 32.9484 69.652 33.1364 69.176C33.3244 68.7 33.6024 68.332 33.9704 68.072C34.3384 67.808 34.7884 67.676 35.3204 67.676C35.5444 67.676 35.7524 67.702 35.9444 67.754C36.1404 67.802 36.3184 67.87 36.4784 67.958C36.6384 68.046 36.7784 68.148 36.8984 68.264C37.0184 68.38 37.1164 68.504 37.1924 68.636V65.084H38.9504V74H37.6784L37.4804 72.728C37.4204 72.9 37.3404 73.068 37.2404 73.232C37.1444 73.396 37.0184 73.546 36.8624 73.682C36.7064 73.814 36.5144 73.92 36.2864 74C36.0624 74.08 35.7984 74.12 35.4944 74.12ZM35.8784 72.86C36.3184 72.86 36.6464 72.706 36.8624 72.398C37.0824 72.09 37.1924 71.57 37.1924 70.838C37.1884 70.414 37.1384 70.062 37.0424 69.782C36.9464 69.502 36.8024 69.294 36.6104 69.158C36.4224 69.018 36.1824 68.948 35.8904 68.948C35.5104 68.948 35.1944 69.094 34.9424 69.386C34.6904 69.674 34.5644 70.158 34.5644 70.838C34.5644 71.53 34.6824 72.04 34.9184 72.368C35.1544 72.696 35.4744 72.86 35.8784 72.86ZM43.2992 74.12C42.6832 74.12 42.1412 73.992 41.6732 73.736C41.2092 73.476 40.8472 73.11 40.5872 72.638C40.3272 72.166 40.1972 71.61 40.1972 70.97C40.1972 70.35 40.3152 69.792 40.5512 69.296C40.7912 68.796 41.1352 68.402 41.5832 68.114C42.0312 67.822 42.5732 67.676 43.2092 67.676C43.8412 67.676 44.3712 67.81 44.7992 68.078C45.2272 68.342 45.5512 68.712 45.7712 69.188C45.9912 69.66 46.1012 70.206 46.1012 70.826V71.3H41.9312C41.9312 71.616 41.9832 71.892 42.0872 72.128C42.1912 72.36 42.3412 72.54 42.5372 72.668C42.7372 72.792 42.9772 72.854 43.2572 72.854C43.5572 72.854 43.8192 72.79 44.0432 72.662C44.2672 72.534 44.4252 72.324 44.5172 72.032H46.0952C46.0232 72.472 45.8472 72.848 45.5672 73.16C45.2872 73.472 44.9472 73.71 44.5472 73.874C44.1472 74.038 43.7312 74.12 43.2992 74.12ZM41.9312 70.256H44.4632C44.4632 70.008 44.4152 69.78 44.3192 69.572C44.2272 69.364 44.0872 69.2 43.8992 69.08C43.7152 68.96 43.4832 68.9 43.2032 68.9C42.9352 68.9 42.7052 68.966 42.5132 69.098C42.3252 69.226 42.1792 69.394 42.0752 69.602C41.9752 69.81 41.9272 70.028 41.9312 70.256ZM50.0352 74V67.796H51.7212V69.266C51.8212 68.95 51.9612 68.674 52.1412 68.438C52.3252 68.198 52.5472 68.012 52.8072 67.88C53.0672 67.744 53.3612 67.676 53.6892 67.676C53.7452 67.676 53.7972 67.68 53.8452 67.688C53.8972 67.692 53.9352 67.7 53.9592 67.712V69.38C53.9232 69.364 53.8792 69.354 53.8272 69.35C53.7792 69.346 53.7352 69.342 53.6952 69.338C53.3512 69.31 53.0572 69.32 52.8132 69.368C52.5692 69.416 52.3712 69.498 52.2192 69.614C52.0672 69.73 51.9572 69.872 51.8892 70.04C51.8212 70.208 51.7872 70.396 51.7872 70.604V74H50.0352ZM57.8188 74.12C57.2028 74.12 56.6608 73.992 56.1928 73.736C55.7288 73.476 55.3668 73.11 55.1068 72.638C54.8468 72.166 54.7168 71.61 54.7168 70.97C54.7168 70.35 54.8348 69.792 55.0708 69.296C55.3108 68.796 55.6548 68.402 56.1028 68.114C56.5508 67.822 57.0928 67.676 57.7288 67.676C58.3608 67.676 58.8908 67.81 59.3188 68.078C59.7468 68.342 60.0708 68.712 60.2908 69.188C60.5108 69.66 60.6208 70.206 60.6208 70.826V71.3H56.4508C56.4508 71.616 56.5028 71.892 56.6068 72.128C56.7108 72.36 56.8608 72.54 57.0568 72.668C57.2568 72.792 57.4968 72.854 57.7768 72.854C58.0768 72.854 58.3388 72.79 58.5628 72.662C58.7868 72.534 58.9448 72.324 59.0368 72.032H60.6148C60.5428 72.472 60.3668 72.848 60.0868 73.16C59.8068 73.472 59.4668 73.71 59.0668 73.874C58.6668 74.038 58.2508 74.12 57.8188 74.12ZM56.4508 70.256H58.9828C58.9828 70.008 58.9348 69.78 58.8388 69.572C58.7468 69.364 58.6068 69.2 58.4188 69.08C58.2348 68.96 58.0028 68.9 57.7228 68.9C57.4548 68.9 57.2248 68.966 57.0328 69.098C56.8448 69.226 56.6988 69.394 56.5948 69.602C56.4948 69.81 56.4468 70.028 56.4508 70.256ZM64.5828 74.12C64.0068 74.12 63.4928 73.992 63.0408 73.736C62.5888 73.48 62.2328 73.114 61.9728 72.638C61.7168 72.158 61.5888 71.586 61.5888 70.922C61.5888 70.282 61.7128 69.718 61.9608 69.23C62.2088 68.742 62.5568 68.362 63.0048 68.09C63.4568 67.814 63.9828 67.676 64.5828 67.676C65.1028 67.676 65.5508 67.782 65.9268 67.994C66.3068 68.206 66.6048 68.492 66.8208 68.852C67.0408 69.212 67.1668 69.614 67.1988 70.058H65.7408C65.7128 69.894 65.6548 69.732 65.5668 69.572C65.4788 69.408 65.3548 69.274 65.1948 69.17C65.0348 69.062 64.8348 69.008 64.5948 69.008C64.1868 69.008 63.8548 69.166 63.5988 69.482C63.3468 69.794 63.2208 70.27 63.2208 70.91C63.2208 71.514 63.3448 71.994 63.5928 72.35C63.8408 72.702 64.1868 72.878 64.6308 72.878C64.8668 72.878 65.0628 72.82 65.2188 72.704C65.3788 72.588 65.5028 72.45 65.5908 72.29C65.6788 72.126 65.7348 71.974 65.7588 71.834H67.1808C67.1528 72.262 67.0288 72.65 66.8088 72.998C66.5888 73.342 66.2888 73.616 65.9088 73.82C65.5328 74.02 65.0908 74.12 64.5828 74.12ZM70.3902 74.108C69.9342 74.108 69.5722 74.054 69.3042 73.946C69.0362 73.838 68.8382 73.696 68.7102 73.52C68.5822 73.34 68.5002 73.142 68.4642 72.926C68.4282 72.706 68.4102 72.484 68.4102 72.26V65.084H70.1262V72.044C70.1262 72.272 70.1742 72.458 70.2702 72.602C70.3702 72.742 70.5562 72.828 70.8282 72.86L71.1222 72.878V73.958C71.0022 73.998 70.8802 74.032 70.7562 74.06C70.6322 74.092 70.5102 74.108 70.3902 74.108ZM74.1428 74.12C73.7508 74.12 73.3948 74.046 73.0748 73.898C72.7588 73.75 72.5088 73.536 72.3248 73.256C72.1408 72.972 72.0488 72.628 72.0488 72.224C72.0488 71.544 72.3028 71.028 72.8108 70.676C73.3188 70.32 74.1208 70.136 75.2168 70.124L75.9968 70.112V69.74C75.9968 69.456 75.9128 69.238 75.7448 69.086C75.5808 68.93 75.3228 68.854 74.9708 68.858C74.7188 68.862 74.4768 68.922 74.2448 69.038C74.0168 69.154 73.8588 69.356 73.7708 69.644H72.3128C72.3368 69.196 72.4668 68.828 72.7028 68.54C72.9428 68.248 73.2648 68.032 73.6688 67.892C74.0728 67.748 74.5348 67.676 75.0548 67.676C75.6868 67.676 76.1948 67.756 76.5788 67.916C76.9628 68.072 77.2408 68.298 77.4128 68.594C77.5888 68.886 77.6768 69.234 77.6768 69.638V74H76.2128L76.0688 72.932C75.8568 73.38 75.5908 73.69 75.2708 73.862C74.9548 74.034 74.5788 74.12 74.1428 74.12ZM74.7368 72.968C74.8928 72.968 75.0448 72.94 75.1928 72.884C75.3448 72.824 75.4808 72.746 75.6008 72.65C75.7208 72.55 75.8148 72.438 75.8828 72.314C75.9548 72.19 75.9928 72.062 75.9968 71.93V71.012L75.3668 71.024C75.0748 71.028 74.8028 71.064 74.5508 71.132C74.2988 71.196 74.0948 71.302 73.9388 71.45C73.7868 71.598 73.7108 71.798 73.7108 72.05C73.7108 72.338 73.8088 72.564 74.0048 72.728C74.2048 72.888 74.4488 72.968 74.7368 72.968ZM79.0977 74V67.796H80.8137V68.672C81.0017 68.4 81.2537 68.166 81.5697 67.97C81.8897 67.774 82.2917 67.676 82.7757 67.676C82.9877 67.676 83.2037 67.714 83.4237 67.79C83.6437 67.866 83.8497 67.978 84.0417 68.126C84.2377 68.27 84.3957 68.452 84.5157 68.672C84.7157 68.388 84.9777 68.152 85.3017 67.964C85.6297 67.772 85.9937 67.676 86.3937 67.676C86.6257 67.676 86.8597 67.714 87.0957 67.79C87.3357 67.866 87.5557 67.99 87.7557 68.162C87.9557 68.334 88.1157 68.564 88.2357 68.852C88.3597 69.136 88.4217 69.488 88.4217 69.908V74H86.6697V70.124C86.6697 69.876 86.6197 69.678 86.5197 69.53C86.4237 69.378 86.2997 69.27 86.1477 69.206C85.9997 69.138 85.8417 69.104 85.6737 69.104C85.5177 69.104 85.3597 69.136 85.1997 69.2C85.0397 69.26 84.9037 69.358 84.7917 69.494C84.6797 69.63 84.6237 69.808 84.6237 70.028V74H82.8777V69.968C82.8777 69.78 82.8277 69.622 82.7277 69.494C82.6277 69.366 82.5017 69.27 82.3497 69.206C82.2017 69.138 82.0497 69.104 81.8937 69.104C81.7337 69.104 81.5737 69.138 81.4137 69.206C81.2537 69.27 81.1197 69.372 81.0117 69.512C80.9037 69.648 80.8497 69.82 80.8497 70.028V74H79.0977ZM91.6389 74.12C91.2469 74.12 90.8909 74.046 90.5709 73.898C90.2549 73.75 90.0049 73.536 89.8209 73.256C89.6369 72.972 89.5449 72.628 89.5449 72.224C89.5449 71.544 89.7989 71.028 90.3069 70.676C90.8149 70.32 91.6169 70.136 92.7129 70.124L93.4929 70.112V69.74C93.4929 69.456 93.4089 69.238 93.2409 69.086C93.0769 68.93 92.8189 68.854 92.4669 68.858C92.2149 68.862 91.9729 68.922 91.7409 69.038C91.5129 69.154 91.3549 69.356 91.2669 69.644H89.8089C89.8329 69.196 89.9629 68.828 90.1989 68.54C90.4389 68.248 90.7609 68.032 91.1649 67.892C91.5689 67.748 92.0309 67.676 92.5509 67.676C93.1829 67.676 93.6909 67.756 94.0749 67.916C94.4589 68.072 94.7369 68.298 94.9089 68.594C95.0849 68.886 95.1729 69.234 95.1729 69.638V74H93.7089L93.5649 72.932C93.3529 73.38 93.0869 73.69 92.7669 73.862C92.4509 74.034 92.0749 74.12 91.6389 74.12ZM92.2329 72.968C92.3889 72.968 92.5409 72.94 92.6889 72.884C92.8409 72.824 92.9769 72.746 93.0969 72.65C93.2169 72.55 93.3109 72.438 93.3789 72.314C93.4509 72.19 93.4889 72.062 93.4929 71.93V71.012L92.8629 71.024C92.5709 71.028 92.2989 71.064 92.0469 71.132C91.7949 71.196 91.5909 71.302 91.4349 71.45C91.2829 71.598 91.2069 71.798 91.2069 72.05C91.2069 72.338 91.3049 72.564 91.5009 72.728C91.7009 72.888 91.9449 72.968 92.2329 72.968ZM99.2938 74.12C98.7178 74.12 98.2038 73.992 97.7518 73.736C97.2998 73.48 96.9438 73.114 96.6838 72.638C96.4278 72.158 96.2998 71.586 96.2998 70.922C96.2998 70.282 96.4238 69.718 96.6718 69.23C96.9198 68.742 97.2678 68.362 97.7158 68.09C98.1678 67.814 98.6938 67.676 99.2938 67.676C99.8138 67.676 100.262 67.782 100.638 67.994C101.018 68.206 101.316 68.492 101.532 68.852C101.752 69.212 101.878 69.614 101.91 70.058H100.452C100.424 69.894 100.366 69.732 100.278 69.572C100.19 69.408 100.066 69.274 99.9058 69.17C99.7458 69.062 99.5458 69.008 99.3058 69.008C98.8978 69.008 98.5658 69.166 98.3098 69.482C98.0578 69.794 97.9318 70.27 97.9318 70.91C97.9318 71.514 98.0558 71.994 98.3038 72.35C98.5518 72.702 98.8978 72.878 99.3418 72.878C99.5778 72.878 99.7738 72.82 99.9298 72.704C100.09 72.588 100.214 72.45 100.302 72.29C100.39 72.126 100.446 71.974 100.47 71.834H101.892C101.864 72.262 101.74 72.65 101.52 72.998C101.3 73.342 101 73.616 100.62 73.82C100.244 74.02 99.8018 74.12 99.2938 74.12ZM103.139 74V67.796H104.813V74H103.139ZM103.121 66.908V65.33H104.825V66.908H103.121ZM109.026 74.12C108.418 74.12 107.888 73.99 107.436 73.73C106.988 73.47 106.64 73.102 106.392 72.626C106.148 72.15 106.026 71.586 106.026 70.934C106.026 70.282 106.148 69.712 106.392 69.224C106.64 68.736 106.988 68.356 107.436 68.084C107.888 67.812 108.42 67.676 109.032 67.676C109.644 67.676 110.174 67.81 110.622 68.078C111.07 68.342 111.416 68.718 111.66 69.206C111.904 69.694 112.026 70.27 112.026 70.934C112.026 71.558 111.906 72.11 111.666 72.59C111.43 73.066 111.088 73.44 110.64 73.712C110.196 73.984 109.658 74.12 109.026 74.12ZM109.032 72.818C109.34 72.818 109.588 72.728 109.776 72.548C109.964 72.368 110.1 72.132 110.184 71.84C110.268 71.544 110.31 71.222 110.31 70.874C110.31 70.546 110.272 70.236 110.196 69.944C110.12 69.652 109.988 69.416 109.8 69.236C109.612 69.056 109.356 68.966 109.032 68.966C108.724 68.966 108.474 69.052 108.282 69.224C108.094 69.392 107.956 69.622 107.868 69.914C107.78 70.202 107.736 70.522 107.736 70.874C107.736 71.198 107.776 71.51 107.856 71.81C107.936 72.106 108.07 72.348 108.258 72.536C108.446 72.724 108.704 72.818 109.032 72.818ZM113.223 74V67.796H114.945V68.672C115.041 68.52 115.165 68.374 115.317 68.234C115.473 68.09 115.669 67.972 115.905 67.88C116.141 67.788 116.421 67.742 116.745 67.742C117.125 67.742 117.479 67.816 117.807 67.964C118.139 68.112 118.407 68.346 118.611 68.666C118.815 68.982 118.917 69.396 118.917 69.908V74H117.165V70.124C117.165 69.788 117.065 69.536 116.865 69.368C116.665 69.2 116.421 69.116 116.133 69.116C115.941 69.116 115.755 69.15 115.575 69.218C115.399 69.286 115.255 69.388 115.143 69.524C115.031 69.66 114.975 69.828 114.975 70.028V74H113.223ZM123.186 74.12C122.57 74.12 122.028 73.992 121.56 73.736C121.096 73.476 120.734 73.11 120.474 72.638C120.214 72.166 120.084 71.61 120.084 70.97C120.084 70.35 120.202 69.792 120.438 69.296C120.678 68.796 121.022 68.402 121.47 68.114C121.918 67.822 122.46 67.676 123.096 67.676C123.728 67.676 124.258 67.81 124.686 68.078C125.114 68.342 125.438 68.712 125.658 69.188C125.878 69.66 125.988 70.206 125.988 70.826V71.3H121.818C121.818 71.616 121.87 71.892 121.974 72.128C122.078 72.36 122.228 72.54 122.424 72.668C122.624 72.792 122.864 72.854 123.144 72.854C123.444 72.854 123.706 72.79 123.93 72.662C124.154 72.534 124.312 72.324 124.404 72.032H125.982C125.91 72.472 125.734 72.848 125.454 73.16C125.174 73.472 124.834 73.71 124.434 73.874C124.034 74.038 123.618 74.12 123.186 74.12ZM121.818 70.256H124.35C124.35 70.008 124.302 69.78 124.206 69.572C124.114 69.364 123.974 69.2 123.786 69.08C123.602 68.96 123.37 68.9 123.09 68.9C122.822 68.9 122.592 68.966 122.4 69.098C122.212 69.226 122.066 69.394 121.962 69.602C121.862 69.81 121.814 70.028 121.818 70.256ZM129.723 74.12C129.291 74.12 128.875 74.05 128.475 73.91C128.079 73.766 127.741 73.542 127.461 73.238C127.185 72.93 127.011 72.532 126.939 72.044H128.451C128.507 72.264 128.603 72.438 128.739 72.566C128.879 72.694 129.037 72.786 129.213 72.842C129.389 72.894 129.557 72.92 129.717 72.92C130.053 72.92 130.323 72.868 130.527 72.764C130.735 72.656 130.839 72.492 130.839 72.272C130.839 72.104 130.777 71.97 130.653 71.87C130.533 71.77 130.333 71.694 130.053 71.642L128.961 71.414C128.413 71.298 127.971 71.102 127.635 70.826C127.303 70.546 127.135 70.15 127.131 69.638C127.127 69.266 127.223 68.932 127.419 68.636C127.619 68.34 127.913 68.106 128.301 67.934C128.693 67.762 129.171 67.676 129.735 67.676C130.499 67.676 131.109 67.844 131.565 68.18C132.025 68.516 132.259 68.99 132.267 69.602H130.803C130.759 69.362 130.639 69.178 130.443 69.05C130.251 68.918 130.007 68.852 129.711 68.852C129.411 68.852 129.163 68.906 128.967 69.014C128.771 69.122 128.673 69.286 128.673 69.506C128.673 69.67 128.753 69.8 128.913 69.896C129.073 69.988 129.321 70.068 129.657 70.136L130.665 70.364C131.013 70.448 131.295 70.564 131.511 70.712C131.731 70.856 131.901 71.014 132.021 71.186C132.141 71.358 132.223 71.532 132.267 71.708C132.315 71.88 132.339 72.036 132.339 72.176C132.339 72.588 132.229 72.94 132.009 73.232C131.789 73.52 131.483 73.74 131.091 73.892C130.699 74.044 130.243 74.12 129.723 74.12Z" fill="white"/>
</svg>
