<svg width="148" height="40" viewBox="0 0 148 40" fill="none" xmlns="http://www.w3.org/2000/svg">
<path d="M110.992 2.95351H112.94V10.9311C112.94 13.7483 111.887 14.9595 109.28 14.9595C106.674 14.9595 105.62 13.722 105.62 10.9048V2.95351H107.569V0.39961H100.855V2.95351H102.224V10.2993C102.224 15.644 104.91 17.6187 109.28 17.6187C113.703 17.6187 116.363 15.6703 116.363 10.3256V2.95351H117.705V0.39961H110.992V2.95351Z" fill="white"/>
<path d="M119.034 2.95351H120.535V14.8541H119.034V17.2237H126.327V14.8541H123.932V11.4051H126.617C130.83 11.4051 132.91 9.45673 132.91 5.90234C132.91 2.4006 130.988 0.39961 126.854 0.39961H119.034V2.95351ZM123.932 8.90383V3.08515H126.564C128.802 3.08515 129.566 4.11198 129.566 5.95499C129.566 7.82434 128.75 8.90383 126.248 8.90383H123.932Z" fill="white"/>
<path d="M144.841 5.40209H147.789V1.8477C146.973 0.978844 145.13 0.0310059 142.234 0.0310059C137.258 0.0310059 134.362 3.4011 134.362 8.64054V8.69319C134.362 14.4066 137.6 17.6187 142.497 17.6187C145.262 17.6187 147.157 16.5655 148 15.644V12.1423H145.13V14.7225C144.367 14.9331 143.55 15.0384 142.761 15.0384C139.627 15.0384 137.916 13.1691 137.916 9.08813V7.98232C137.916 4.63855 139.364 2.74288 142.497 2.74288C143.34 2.74288 144.13 2.82186 144.841 3.00617V5.40209Z" fill="white"/>
<path d="M22.771 37.1253C24.4692 37.1253 25.7133 36.6119 26.1675 36.1183L26.3254 35.0519C25.7133 35.4271 24.489 35.8221 23.166 35.8221C21.0728 35.8221 20.046 34.973 20.3619 32.5639H26.8388C27.0166 32.1097 27.135 31.6555 27.1943 31.2014C27.53 29.1477 26.7598 27.2125 23.9361 27.2125C21.3295 27.2125 19.2166 29.1477 18.7427 32.1294V32.1492C18.2096 35.4271 19.8683 37.1253 22.771 37.1253ZM23.7584 28.4171C25.1209 28.4171 25.9897 29.3057 25.6738 31.3198L25.654 31.5173H20.5397C20.8754 29.5624 22.1786 28.4171 23.7584 28.4171Z" fill="white"/>
<path d="M33.0255 36.9081H37.2316L37.4093 35.6641H36.5602L34.2893 32.0702L37.2118 28.891H38.5151L38.7323 27.4495H34.6645L34.4473 28.812H35.6321L33.4402 31.2803L31.9197 28.812H32.9861L33.2033 27.4495H29.017L28.7998 28.891H30.0241L31.9987 32.1294L28.5826 35.6641H27.7334L27.5557 36.9081H31.6433L31.821 35.7431H30.182L32.8676 32.9193L34.6448 35.7431H33.2033L33.0255 36.9081Z" fill="white"/>
<path d="M39.618 28.891H40.9213L39.8352 35.6641H38.5319L38.3542 36.9081H42.6195L42.7972 35.6641H41.4939L42.7972 27.4495H39.8352L39.618 28.891ZM41.1187 26.2647H42.2443L45.0088 23.6187H42.659L41.1187 26.2647Z" fill="white"/>
<path d="M47.7232 39.9689C50.4482 39.9689 52.6796 38.5274 53.1733 35.4074L54.2001 28.891H55.4244L55.6416 27.4495H53.1535C53.1535 27.4495 52.6796 28.4171 52.4426 29.5031C52.2254 27.9827 51.2579 27.2323 49.3622 27.2323C47.1308 27.2323 45.0574 28.97 44.623 31.7345V31.7543C44.1688 34.5978 45.3141 36.4737 47.8417 36.4737C49.6386 36.4737 51.0011 35.6838 51.712 34.1239L51.4948 35.5259C51.1394 37.7375 49.6584 38.6261 47.7824 38.6261C45.8275 38.6261 44.9982 37.9152 44.544 37.4413L44.3268 38.7841C44.702 39.337 45.5906 39.9689 47.7232 39.9689ZM48.3946 35.2692C46.6766 35.2692 45.946 34.1239 46.262 32.1492L46.3607 31.5173C46.6766 29.5031 47.9009 28.5553 49.5201 28.5553C51.1394 28.5553 52.4229 29.6019 52.0675 31.8333L52.028 32.1492C51.6923 34.2028 50.0138 35.2692 48.3946 35.2692Z" fill="white"/>
<path d="M60.0274 37.1253C61.7256 37.1253 62.9696 36.6119 63.4238 36.1183L63.5818 35.0519C62.9696 35.4271 61.7453 35.8221 60.4223 35.8221C58.3292 35.8221 57.3023 34.973 57.6183 32.5639H64.0952C64.2729 32.1097 64.3914 31.6555 64.4506 31.2014C64.7863 29.1477 64.0162 27.2125 61.1924 27.2125C58.5859 27.2125 56.473 29.1477 55.9991 32.1294V32.1492C55.4659 35.4271 57.1246 37.1253 60.0274 37.1253ZM61.0147 28.4171C62.3772 28.4171 63.2461 29.3057 62.9301 31.3198L62.9104 31.5173H57.796C58.1317 29.5624 59.435 28.4171 61.0147 28.4171Z" fill="white"/>
<path d="M68.9414 37.1648C70.0275 37.1648 70.7186 36.7897 71.0543 36.375L71.1728 35.5456C70.6396 35.7431 70.0867 35.8616 69.4746 35.8616C68.5267 35.8616 67.9936 35.5061 68.2108 34.1634L69.0599 28.7725H72.1009L72.2983 27.4495H69.2574L69.7115 24.685H68.6452C67.9541 26.9361 67.8159 27.726 66.1374 27.7852L65.9794 28.7725H67.4012L66.5323 34.2818C66.1571 36.5724 67.5394 37.1648 68.9414 37.1648Z" fill="white"/>
<path d="M76.7271 37.1253C78.4254 37.1253 79.6694 36.6119 80.1236 36.1183L80.2815 35.0519C79.6694 35.4271 78.4451 35.8221 77.1221 35.8221C75.0289 35.8221 74.0021 34.973 74.3181 32.5639H80.7949C80.9727 32.1097 81.0911 31.6555 81.1504 31.2014C81.4861 29.1477 80.716 27.2125 77.8922 27.2125C75.2856 27.2125 73.1727 29.1477 72.6988 32.1294V32.1492C72.1657 35.4271 73.8244 37.1253 76.7271 37.1253ZM77.7145 28.4171C79.077 28.4171 79.9458 29.3057 79.6299 31.3198L79.6101 31.5173H74.4958C74.8315 29.5624 76.1347 28.4171 77.7145 28.4171Z" fill="white"/>
<path d="M81.24 39.1198H82.2273C83.3332 38.1127 84.0243 37.0069 84.2218 35.6641C84.281 35.3679 84.3007 35.1507 84.3007 34.8742H82.4446C82.4643 35.2494 82.4248 35.6838 82.3656 36.0788C82.2273 36.9674 81.8917 37.9744 81.24 39.1198Z" fill="white"/>
<path d="M90.7394 28.891H92.0426L90.9566 35.6641H89.6533L89.4756 36.9081H93.7409L93.9186 35.6641H92.6153L93.9186 27.4495H90.9566L90.7394 28.891ZM93.2077 26.0277C93.8001 26.0277 94.3728 25.5538 94.4517 24.9614C94.5505 24.369 94.1358 23.8754 93.5434 23.8754C92.951 23.8754 92.3783 24.369 92.2796 24.9614C92.2006 25.5538 92.6153 26.0277 93.2077 26.0277Z" fill="white"/>
<path d="M101.096 36.9081H105.321L105.499 35.6641H104.374L105.203 30.451C105.558 28.2986 104.492 27.2125 102.656 27.2125C101.036 27.2125 99.4172 28.1999 98.8248 30.0363L98.8643 29.7599C99.0421 28.5751 98.8248 27.4495 98.8248 27.4495H96.3368L96.1196 28.891H97.3438L96.2578 35.6641H95.0335L94.8558 36.9081H99.2395L99.4172 35.6641H97.9165L98.5484 31.6753C98.9236 29.7006 100.345 28.5948 101.984 28.5948C103.228 28.5948 103.762 29.1082 103.584 30.1943L102.715 35.6641H101.273L101.096 36.9081Z" fill="white"/>
<path d="M112.666 36.9081H116.892L117.069 35.6641H115.944L116.773 30.451C117.129 28.2986 116.062 27.2125 114.226 27.2125C112.607 27.2125 110.988 28.1999 110.395 30.0363L110.435 29.7599C110.612 28.5751 110.395 27.4495 110.395 27.4495H107.907L107.69 28.891H108.914L107.828 35.6641H106.604L106.426 36.9081H110.81L110.988 35.6641H109.487L110.119 31.6753C110.494 29.7006 111.916 28.5948 113.555 28.5948C114.799 28.5948 115.332 29.1082 115.154 30.1943L114.285 35.6641H112.844L112.666 36.9081Z" fill="white"/>
<path d="M122.854 35.9405C121.195 35.9405 120.07 34.9335 120.484 32.3269L120.603 31.5765C120.919 29.6019 122.281 28.4171 124.059 28.4171C125.836 28.4171 126.803 29.6019 126.487 31.5765L126.369 32.3269C125.954 34.9335 124.513 35.9405 122.854 35.9405ZM122.676 37.1253C125.204 37.1253 127.573 35.4864 128.107 32.0505L128.126 32.0307C128.581 29.1082 127.021 27.2125 124.236 27.2125C121.452 27.2125 119.3 29.1082 118.826 32.0505V32.0702C118.293 35.4864 120.149 37.1253 122.676 37.1253Z" fill="white"/>
<path d="M135.347 28.891H136.907L133.471 35.7826L132.069 28.891H133.491L133.708 27.4495H129.482L129.265 28.891H130.292L132.089 36.9081H134.32L138.526 28.891H139.553L139.77 27.4495H135.564L135.347 28.891Z" fill="white"/>
<path d="M140.812 30.2338H142.313L142.55 28.6935C143.024 28.5356 143.557 28.4171 144.13 28.4171C145.591 28.4171 146.104 29.1872 145.966 30.1153V30.1548C145.828 31.0236 145.374 31.3593 143.794 31.7148C141.74 32.1689 139.785 32.5836 139.469 34.6373V34.657C139.213 36.217 140.2 37.1648 141.859 37.1648C143.36 37.1648 144.584 36.4737 145.176 35.0519C145.038 36.5527 145.729 36.9871 146.756 36.9871C147.408 36.9871 147.862 36.7699 147.862 36.7699L148 35.8023C147.842 35.8221 147.743 35.8221 147.585 35.8221C146.874 35.8221 146.776 35.5061 146.874 34.8545L147.526 30.7274C147.842 28.5751 146.993 27.2125 144.544 27.2125C142.826 27.2125 141.642 27.8839 141.108 28.3381L140.812 30.2338ZM142.649 36.0195C141.523 36.0195 141.029 35.4864 141.187 34.5385V34.4398C141.345 33.492 141.918 33.3142 143.774 32.7021C144.485 32.4651 145.216 32.1887 145.69 31.8333L145.472 33.2353C145.196 35.0322 143.814 36.0195 142.649 36.0195Z" fill="white"/>
</svg>
