<svg width="127" height="25" viewBox="0 0 127 25" fill="none" xmlns="http://www.w3.org/2000/svg">
<path id="Vector" d="M12.5593 2.92342L10.722 16.8676L8.88196 2.92342H6.29918L4.45913 16.8676L2.62187 2.92342H0L0.846034 9.32313L2.68609 21.0168H6.25451L7.59755 11.6742L8.94897 21.0168H12.5174L14.3463 9.34267L15.1923 2.92342H12.5621H12.5593ZM20.7767 2.92342H17.2055L15.3654 14.6255L14.5194 21.0168H17.1413L17.6578 17.1804H20.316L20.8214 21.0168H23.4544L22.6084 14.5976L20.7767 2.92342ZM17.9873 14.5976L18.9813 7.07262L19.9753 14.5976H17.9873ZM28.2514 2.70005C25.797 2.70005 24.5713 3.95653 24.5713 6.4723V8.15599C24.5713 9.80897 25.3726 11.2134 26.9726 12.3666C28.5753 13.5254 29.3738 14.5389 29.3738 15.4073V17.4596C29.3738 18.2721 29.0025 18.677 28.2598 18.677C27.5115 18.677 27.1345 18.2721 27.1345 17.4596V15.0415H24.5713V17.4596C24.5713 19.9753 25.8026 21.2346 28.2626 21.2402C30.7169 21.2402 31.9427 19.9809 31.9427 17.4596V15.1895C31.9427 13.5784 31.1413 12.1963 29.5386 11.0431C27.9359 9.88436 27.1373 8.9043 27.1373 8.10294V6.4723C27.1373 5.65977 27.5059 5.2549 28.243 5.2549H28.2626C29.0053 5.26049 29.3766 5.66815 29.3766 6.4723V8.89034H31.9427V6.4723C31.9427 3.95653 30.7113 2.70005 28.2514 2.70005ZM36.9602 2.70005C34.5059 2.70005 33.2801 3.95653 33.2801 6.4723V17.4596C33.2801 19.9809 34.5059 21.2402 36.9602 21.2402C39.4201 21.2346 40.6515 19.9725 40.6515 17.4596V15.0415H38.0855V17.4596C38.0855 18.2721 37.7113 18.677 36.9602 18.677C36.2175 18.677 35.8461 18.2721 35.8461 17.4596V6.4723C35.8461 5.65977 36.2147 5.2549 36.9519 5.2549H36.9686C37.7113 5.26049 38.0827 5.66815 38.0827 6.4723V8.89034H40.6487V6.4723C40.6487 3.95653 39.4174 2.70005 36.9574 2.70005M55.1486 9.52416C54.9084 9.53812 54.6767 9.44877 54.5064 9.27845C54.3444 9.09975 54.2299 8.88475 54.1741 8.65021C54.1071 8.39053 54.0624 8.12248 54.0456 7.85443L53.0851 8.11411C53.1019 8.52177 53.1912 8.92105 53.3532 9.2952C53.4956 9.62189 53.7301 9.89832 54.0317 10.091C54.6739 10.4512 55.4501 10.4763 56.1147 10.158C56.3911 10.0128 56.62 9.79221 56.7736 9.51858C56.9411 9.21423 57.0221 8.87079 57.0137 8.52456C57.0249 8.0806 56.9104 7.64223 56.6787 7.26249C56.4665 6.91905 56.204 6.61191 55.8997 6.34665L54.5845 5.19348C54.4282 5.06224 54.2969 4.90309 54.1964 4.72439C54.1099 4.5401 54.068 4.33907 54.0764 4.13803C54.0596 3.90348 54.1406 3.67173 54.3025 3.49862C54.4756 3.34504 54.7018 3.26966 54.9308 3.28362C55.1541 3.26686 55.3747 3.33667 55.5506 3.47907C55.6986 3.61868 55.8047 3.80017 55.8522 3.99842C55.9136 4.23017 55.9499 4.46471 55.9667 4.70484L56.8881 4.45634C56.863 4.15199 56.8015 3.85322 56.701 3.56842C56.62 3.33667 56.4916 3.12167 56.3269 2.94018C56.1649 2.76985 55.9639 2.6442 55.7405 2.57161C55.478 2.48784 55.2044 2.44596 54.928 2.45154C54.4393 2.42362 53.9591 2.59395 53.5933 2.92342C53.2499 3.27803 53.074 3.75829 53.1019 4.24971C53.0907 4.58757 53.1549 4.92263 53.2834 5.23257C53.4174 5.51458 53.6101 5.76587 53.8502 5.96691L55.1569 7.12009C55.3803 7.31554 55.5813 7.53333 55.7628 7.76788C55.9332 8.01638 56.0169 8.31514 56.003 8.6167C56.0197 8.86241 55.9415 9.10254 55.788 9.29241C55.6176 9.45994 55.3859 9.54371 55.1486 9.52696M60.3057 9.89273C60.5626 9.50462 60.6883 9.04111 60.6603 8.57761V8.3654H59.6607V8.70047C59.6607 8.86241 59.6496 9.02436 59.6189 9.18631C59.5993 9.30637 59.5435 9.41806 59.4541 9.50462C59.3564 9.58559 59.2307 9.62468 59.1023 9.61631C58.9739 9.62189 58.8482 9.58838 58.7421 9.51858C58.6416 9.4404 58.5718 9.3315 58.5411 9.20585C58.4936 9.02715 58.4741 8.84287 58.4796 8.65858V7.5445H60.6687V7.09216C60.6743 6.65658 60.638 6.221 60.5626 5.791C60.5151 5.47269 60.3616 5.17951 60.1242 4.95893C59.8255 4.74114 59.4597 4.64062 59.0911 4.67134C58.7421 4.65179 58.3959 4.73835 58.0971 4.92263C57.8486 5.10133 57.6699 5.3638 57.5917 5.66256C57.4856 6.06464 57.4382 6.47788 57.4465 6.89113V8.15878C57.4382 8.56923 57.4856 8.97689 57.5861 9.37338C57.6587 9.67215 57.8346 9.93741 58.0804 10.1217C58.3819 10.3088 58.7337 10.3981 59.0883 10.3758C59.6579 10.3758 60.06 10.2166 60.2974 9.89552M58.4713 6.6873C58.4657 6.436 58.4824 6.18191 58.5187 5.93341C58.5327 5.78821 58.5969 5.65139 58.6974 5.54529C58.8063 5.46152 58.9404 5.41964 59.0772 5.43081C59.214 5.41964 59.3508 5.46152 59.4569 5.55088C59.5463 5.6486 59.6021 5.77425 59.6161 5.90548C59.644 6.09815 59.6579 6.29081 59.6552 6.48626V6.98606H58.4741V6.6873H58.4713ZM64.589 10.3004V5.80496C64.589 5.62626 64.5638 5.44756 64.5164 5.27724C64.4745 5.1125 64.3879 4.96452 64.2679 4.84445C64.1255 4.72159 63.9412 4.65737 63.7541 4.67134C63.4972 4.67134 63.2403 4.73276 63.0142 4.85283C62.7908 4.97289 62.5842 5.12088 62.3999 5.29399V4.74672H61.3723V10.2976H62.3999V5.82172C62.5116 5.72678 62.6316 5.64581 62.7601 5.576C62.869 5.51178 62.9946 5.47828 63.1203 5.47549C63.2599 5.45594 63.3995 5.52016 63.4749 5.63743C63.5391 5.78263 63.5698 5.93899 63.5614 6.09815V10.2948H64.589V10.3004ZM65.435 4.74952H66.4625V10.3004H65.435V4.74952ZM65.435 2.84803H66.4625V3.92303H65.435V2.84803ZM67.9145 10.1273C68.2048 10.3088 68.5427 10.3953 68.8833 10.3758C69.224 10.3953 69.5618 10.3088 69.8494 10.1273C70.0896 9.95137 70.2655 9.70286 70.3492 9.41527C70.4553 9.06345 70.5056 8.69767 70.4972 8.32911V6.71522C70.5028 6.34665 70.4526 5.98087 70.3492 5.62906C70.2655 5.34425 70.0896 5.09296 69.8494 4.91705C69.5618 4.73556 69.224 4.649 68.8833 4.66854C68.5427 4.649 68.202 4.73835 67.9145 4.91705C67.6715 5.09016 67.4956 5.34146 67.4091 5.62906C67.303 5.98087 67.2527 6.34665 67.2611 6.71522V8.32911C67.2555 8.69767 67.3058 9.06345 67.4091 9.41527C67.4928 9.70286 67.6715 9.95137 67.9145 10.1273ZM68.2886 6.65938C68.2886 6.44717 68.297 6.24892 68.3137 6.06464C68.3221 5.90269 68.3724 5.74633 68.4617 5.60951C68.5622 5.48386 68.7214 5.41685 68.8833 5.43081C69.0453 5.41406 69.2017 5.48107 69.3022 5.60951C69.3887 5.74633 69.439 5.90548 69.4474 6.06743C69.4641 6.25451 69.4697 6.45275 69.4725 6.66217V8.4017C69.4725 8.60553 69.4641 8.80378 69.4474 8.99365C69.439 9.15559 69.3915 9.31196 69.3022 9.44877C69.2017 9.57442 69.0425 9.63864 68.8833 9.62189C68.7214 9.63864 68.565 9.57442 68.4617 9.44877C68.3724 9.31196 68.3193 9.15559 68.3137 8.99365C68.297 8.80378 68.2886 8.60833 68.2886 8.4017V6.66217V6.65938ZM72.2731 6.24613C72.3652 6.07301 72.4992 5.92503 72.6612 5.81893C72.7952 5.74354 72.946 5.70445 73.0995 5.70724C73.2001 5.70724 73.3034 5.71841 73.4011 5.74074C73.4905 5.76029 73.5798 5.78821 73.6664 5.82172V4.68809C73.6357 4.6825 73.6049 4.67971 73.5742 4.67971H73.5016C73.2866 4.6825 73.0744 4.74114 72.8873 4.85283C72.6305 5.02594 72.4183 5.26049 72.2731 5.53412V4.74672H71.2455V10.2976H72.2731V6.24334V6.24613ZM79.9013 9.23936C80.0242 8.8317 80.08 8.41008 80.0744 7.98567V7.40768H79.0469V7.98567C79.0469 8.25651 79.033 8.52456 78.9995 8.79261C78.9799 8.99365 78.8961 9.18631 78.7593 9.33429C78.5834 9.48228 78.3544 9.55209 78.1255 9.53254C77.9161 9.54371 77.7095 9.49345 77.5308 9.38735C77.3688 9.27007 77.2571 9.09696 77.2124 8.9015C77.1398 8.59716 77.1063 8.28722 77.1175 7.9745V4.89192C77.1147 4.60991 77.1343 4.33069 77.1789 4.05147C77.2069 3.83926 77.3018 3.64381 77.4526 3.49582C77.6452 3.34784 77.8826 3.27803 78.1255 3.30037C78.3544 3.27803 78.5834 3.34504 78.7677 3.48186C78.9045 3.62147 78.9883 3.80296 79.0022 3.99563C79.033 4.24971 79.0469 4.5038 79.0441 4.75789V5.30516H80.0716V4.69088C80.08 4.28322 80.0186 3.87556 79.8846 3.49024C79.7729 3.17193 79.5551 2.90109 79.2703 2.72239C78.9185 2.52693 78.5164 2.432 78.1143 2.45434C77.6648 2.42641 77.2152 2.54089 76.8327 2.77544C76.5228 2.99602 76.2994 3.31712 76.1989 3.6829C76.0732 4.12965 76.0118 4.59315 76.0202 5.05666V7.80417C76.0146 8.24534 76.0732 8.68651 76.1989 9.11092C76.305 9.48228 76.5256 9.80897 76.8327 10.0435C77.2097 10.2948 77.662 10.4177 78.1143 10.3897C78.5332 10.4149 78.9492 10.3088 79.3066 10.0882C79.5942 9.88156 79.8036 9.5828 79.9041 9.24215M81.3644 10.1301C81.6548 10.3116 81.9927 10.3981 82.3333 10.3786C82.674 10.3981 83.0118 10.3116 83.2994 10.1301C83.5396 9.95416 83.7155 9.70566 83.7992 9.41806C83.9053 9.06624 83.9556 8.70047 83.9472 8.3319V6.71801C83.9528 6.34944 83.9025 5.98366 83.7992 5.63185C83.7155 5.34705 83.5396 5.09575 83.2994 4.91984C83.0118 4.73835 82.674 4.65179 82.3333 4.67134C81.9927 4.65179 81.652 4.74114 81.3644 4.91984C81.1215 5.09296 80.9456 5.34425 80.859 5.63185C80.7529 5.98366 80.7027 6.34944 80.7111 6.71801V8.3319C80.7055 8.70047 80.7557 9.06624 80.859 9.41806C80.9428 9.70566 81.1215 9.95416 81.3644 10.1301ZM81.7386 6.66217C81.7386 6.44996 81.747 6.25172 81.7637 6.06743C81.7721 5.90548 81.8223 5.74912 81.9117 5.6123C82.0122 5.48666 82.1714 5.41964 82.3333 5.4336C82.4953 5.41685 82.6516 5.48386 82.7522 5.6123C82.8387 5.74912 82.889 5.90828 82.8974 6.07022C82.9141 6.2573 82.9197 6.45554 82.9197 6.66496V8.40449C82.9197 8.60833 82.9113 8.80657 82.8974 8.99644C82.889 9.15839 82.8415 9.31475 82.7522 9.45157C82.6516 9.57722 82.4925 9.64144 82.3333 9.62468C82.1714 9.64144 82.015 9.57722 81.9117 9.45157C81.8223 9.31475 81.7693 9.15839 81.7637 8.99644C81.747 8.80657 81.7386 8.61112 81.7386 8.40449V6.66496V6.66217ZM84.7653 2.52135H85.7929V10.3004H84.7653V2.51297V2.52135ZM86.745 2.52135H87.7725V10.3004H86.745V2.51297V2.52135ZM89.1546 10.1245C89.4562 10.3116 89.808 10.4009 90.1626 10.3786C90.7322 10.3786 91.1343 10.2194 91.3716 9.89832C91.6285 9.5102 91.7542 9.0467 91.7263 8.58319V8.37099H90.7266V8.70605C90.7266 8.868 90.7155 9.02995 90.6848 9.19189C90.6652 9.31196 90.6094 9.42365 90.5228 9.5102C90.4251 9.59118 90.2994 9.63027 90.171 9.62189C90.0426 9.62747 89.9169 9.59397 89.8108 9.52416C89.7103 9.44598 89.6405 9.33709 89.6098 9.21144C89.5623 9.03274 89.5428 8.84845 89.5483 8.66417V7.55008H91.7402V7.09775C91.7458 6.66217 91.7095 6.22659 91.6341 5.79659C91.5866 5.47828 91.4331 5.1851 91.1957 4.96452C90.897 4.74672 90.5312 4.64621 90.1626 4.67692C89.8136 4.65737 89.4674 4.74393 89.1686 4.92822C88.9201 5.10692 88.7414 5.36938 88.6632 5.66815C88.5571 6.07022 88.5096 6.48347 88.518 6.89671V8.16437C88.5096 8.57482 88.5571 8.98248 88.6576 9.37897C88.7302 9.67773 88.9061 9.94299 89.1519 10.1273M89.5456 6.69288C89.54 6.44158 89.5567 6.18749 89.593 5.93899C89.607 5.7938 89.6712 5.65698 89.7717 5.55088C89.8806 5.46711 90.0146 5.42523 90.1515 5.4364C90.2883 5.42523 90.4251 5.46711 90.5312 5.55646C90.6206 5.65419 90.6764 5.77984 90.6903 5.91107C90.7183 6.10373 90.7322 6.29639 90.7294 6.49184V6.99165H89.5483V6.69288H89.5456ZM95.8084 4.71601C95.6297 4.79419 95.465 4.9003 95.317 5.02874C95.2221 5.10692 95.1327 5.19627 95.0573 5.2912C94.9708 5.09575 94.8228 4.9338 94.6385 4.83049C94.4123 4.7188 94.1638 4.66575 93.9125 4.67692C93.611 4.66575 93.3122 4.74393 93.0525 4.90309C92.8124 5.06224 92.6253 5.29399 92.5248 5.56484C92.3964 5.91386 92.335 6.28243 92.3461 6.65658C92.3322 7.0084 92.3852 7.36301 92.5081 7.69528C92.6114 7.9382 92.7761 8.1504 92.9883 8.30956C92.8236 8.45475 92.67 8.61391 92.536 8.78982C92.4243 8.94339 92.3685 9.12767 92.374 9.31754C92.374 9.44598 92.4243 9.57163 92.5081 9.66936C92.6142 9.79221 92.7538 9.87598 92.9129 9.91507C92.7761 9.98208 92.6477 10.0631 92.5276 10.1608C92.4075 10.2585 92.307 10.3758 92.2288 10.5126C92.1507 10.6578 92.1088 10.8197 92.1144 10.9845C92.106 11.2106 92.187 11.4284 92.3461 11.5904C92.5248 11.7579 92.7426 11.8724 92.9799 11.9254C93.2759 11.998 93.5775 12.0343 93.8818 12.0316C94.2476 12.0427 94.6134 11.9897 94.9624 11.878C95.2193 11.7942 95.4455 11.6323 95.6018 11.4117C95.7498 11.1855 95.8224 10.9175 95.814 10.6494C95.8364 10.3004 95.7247 9.95695 95.4985 9.6889C95.236 9.44319 94.8898 9.30079 94.5268 9.2952L93.6612 9.21702C93.5412 9.21423 93.4211 9.18631 93.3094 9.13605C93.2424 9.10534 93.2005 9.04111 93.1977 8.96852C93.1977 8.89034 93.2201 8.81495 93.2592 8.74793C93.301 8.67254 93.3401 8.60553 93.3792 8.5469C93.4658 8.56644 93.5523 8.58319 93.6389 8.59436C93.7282 8.60553 93.8176 8.61391 93.907 8.61391C94.2309 8.63345 94.5519 8.5469 94.8256 8.3682C95.0518 8.19787 95.2165 7.96054 95.3003 7.68969C95.4008 7.3658 95.451 7.03074 95.4454 6.69009C95.4454 6.5058 95.4259 6.32431 95.3924 6.14282C95.3701 5.98087 95.3282 5.82451 95.2723 5.67373C95.3393 5.62068 95.4175 5.58159 95.4985 5.55367C95.6158 5.5062 95.7442 5.45873 95.8838 5.40847C95.9927 5.36938 96.1016 5.33867 96.2161 5.31633L95.9564 4.65458L95.8056 4.72159L95.8084 4.71601ZM93.396 10.0268L94.2699 10.1049C94.4319 10.1161 94.5882 10.1468 94.7418 10.2027C94.8368 10.2362 94.9149 10.3004 94.968 10.3842C95.0127 10.4735 95.035 10.5712 95.0294 10.6718C95.0378 10.8505 94.9345 11.018 94.7697 11.0906C94.5129 11.1911 94.2392 11.2358 93.9628 11.219C93.7003 11.2386 93.4379 11.1967 93.1949 11.0934C93.0581 11.018 92.9772 10.8728 92.9827 10.7192C92.9827 10.6299 93.0023 10.5433 93.0414 10.4651C93.0805 10.3842 93.1335 10.306 93.1949 10.239C93.2592 10.1692 93.3262 10.0994 93.396 10.0268ZM94.5547 7.17314C94.5436 7.30716 94.5129 7.4384 94.4626 7.56125C94.4235 7.65898 94.3537 7.74274 94.2671 7.80138C94.161 7.86002 94.0382 7.88794 93.9153 7.88235C93.7925 7.88794 93.6724 7.85443 93.5691 7.78742C93.477 7.72041 93.4072 7.63106 93.3625 7.52775C93.3094 7.40489 93.2787 7.27366 93.2675 7.13963C93.234 6.79899 93.2368 6.45275 93.2731 6.11211C93.2871 5.97808 93.3206 5.84406 93.3708 5.71841C93.4127 5.61789 93.4853 5.53133 93.5775 5.47269C93.6836 5.41127 93.8064 5.38055 93.9293 5.38614C94.0521 5.38055 94.175 5.41127 94.2811 5.47269C94.3705 5.53412 94.4375 5.62347 94.4738 5.72678C94.5184 5.85802 94.5492 5.99204 94.5603 6.12886C94.5771 6.30197 94.5855 6.47788 94.5855 6.65379C94.5855 6.82691 94.5771 7.00002 94.5603 7.17314M96.9002 10.1273C97.2017 10.3144 97.5536 10.4037 97.9082 10.3814C98.4778 10.3814 98.8826 10.2222 99.1172 9.90111C99.3741 9.51299 99.4997 9.04949 99.4718 8.58599V8.37378H98.4722V8.70884C98.4722 8.87079 98.461 9.03274 98.4303 9.19468C98.4108 9.31475 98.3521 9.42644 98.2684 9.51299C98.1706 9.59397 98.045 9.63306 97.9165 9.62468C97.7881 9.63027 97.6625 9.59397 97.5564 9.52416C97.4558 9.44598 97.386 9.33709 97.3553 9.21144C97.3078 9.03274 97.2883 8.84845 97.2939 8.66417V7.55008H99.483V7.10054C99.4885 6.66496 99.4522 6.22938 99.3769 5.79938C99.3294 5.48107 99.1758 5.18789 98.9385 4.96731C98.6397 4.75231 98.2739 4.649 97.9054 4.67971C97.5564 4.66017 97.2101 4.74672 96.9113 4.93101C96.6628 5.10971 96.4841 5.37218 96.406 5.67094C96.2999 6.07302 96.2524 6.48626 96.2608 6.8995V8.16716C96.2524 8.57761 96.2999 8.98527 96.4004 9.38176C96.473 9.68053 96.6489 9.94578 96.8946 10.1301M97.2883 6.69567C97.2827 6.44438 97.2995 6.19029 97.3358 5.94178C97.3497 5.79659 97.4111 5.65977 97.5145 5.55367C97.6234 5.4699 97.7574 5.42802 97.8942 5.43919C98.031 5.42802 98.1678 5.4699 98.2739 5.55925C98.3633 5.65698 98.4191 5.78263 98.4331 5.91386C98.461 6.10652 98.475 6.29918 98.4722 6.49464V6.99444H97.2911V6.69567H97.2883ZM103.931 10.1021C104.101 9.93182 104.23 9.72241 104.299 9.49066C104.313 9.6191 104.333 9.7615 104.361 9.91786C104.389 10.0742 104.414 10.2055 104.434 10.306H105.374C105.361 10.1831 105.347 10.0547 105.333 9.91786C105.319 9.78104 105.305 9.63027 105.294 9.47111C105.282 9.31196 105.28 9.14443 105.28 8.97131V6.436C105.31 5.97529 105.187 5.51458 104.933 5.12925C104.702 4.8277 104.311 4.67692 103.761 4.67692C103.3 4.63783 102.848 4.79698 102.512 5.11529C102.211 5.50062 102.06 5.98366 102.091 6.47509L103.11 6.51418V6.23496C103.11 6.09256 103.127 5.95295 103.169 5.81613C103.199 5.70724 103.266 5.6123 103.356 5.5425C103.456 5.47549 103.576 5.44198 103.696 5.44756C103.825 5.43919 103.956 5.47828 104.057 5.55925C104.146 5.6486 104.199 5.76587 104.216 5.89152C104.244 6.07581 104.258 6.26288 104.255 6.44996V6.84366C103.959 6.95814 103.68 7.0782 103.414 7.19827C103.163 7.30996 102.929 7.45515 102.714 7.62547C102.512 7.78742 102.351 7.99404 102.239 8.22579C102.116 8.49943 102.057 8.79819 102.066 9.09975C102.066 9.31475 102.113 9.52696 102.211 9.71962C102.303 9.90669 102.437 10.0714 102.605 10.1971C102.769 10.3227 102.973 10.387 103.18 10.3842C103.459 10.3981 103.733 10.2976 103.934 10.1021M103.185 8.35424C103.247 8.22859 103.333 8.11411 103.437 8.01917C103.551 7.91307 103.674 7.81813 103.805 7.73716C103.945 7.64781 104.096 7.55846 104.258 7.46911V9.04391C104.216 9.10813 104.168 9.16676 104.112 9.22261C104.04 9.298 103.959 9.36222 103.872 9.42085C103.786 9.4767 103.685 9.50741 103.585 9.50741C103.437 9.513 103.297 9.4404 103.219 9.31475C103.065 9.01598 103.051 8.66696 103.185 8.35982M108.957 4.85841C108.814 4.73556 108.63 4.67134 108.443 4.6853C108.186 4.6853 107.932 4.74393 107.703 4.86679C107.48 4.98685 107.273 5.13484 107.089 5.30795V4.76069H106.061V10.3116H107.089V5.83568C107.201 5.74074 107.321 5.65977 107.449 5.58997C107.558 5.52575 107.684 5.49224 107.809 5.48945C107.949 5.4699 108.088 5.53412 108.164 5.65139C108.228 5.79659 108.259 5.95295 108.25 6.11211V10.3088H109.278V5.81334C109.278 5.63464 109.253 5.45594 109.205 5.28562C109.163 5.12088 109.077 4.97289 108.957 4.85283M111.838 10.2641C111.986 10.1803 112.12 10.077 112.238 9.95137V10.306H113.265V2.51297H112.238V5.09575C112.115 4.97289 111.975 4.86958 111.824 4.78861C111.668 4.70484 111.492 4.66296 111.316 4.66296C110.995 4.64062 110.682 4.76068 110.456 4.98965C110.247 5.23815 110.11 5.53691 110.057 5.85802C109.984 6.24613 109.948 6.63983 109.951 7.03632V8.11131C109.951 8.92943 110.065 9.5102 110.297 9.85364C110.532 10.1971 110.928 10.3925 111.344 10.3674C111.517 10.3702 111.688 10.3283 111.838 10.2473M111.199 9.38176C111.098 9.23657 111.037 9.06904 111.02 8.89313C110.99 8.66138 110.976 8.42962 110.976 8.19787V6.63145C110.97 6.35223 111.012 6.07581 111.101 5.81055C111.163 5.59834 111.361 5.45873 111.582 5.4699C111.704 5.4699 111.824 5.49224 111.936 5.5425C112.042 5.58717 112.14 5.64302 112.235 5.71003V9.35105C112.134 9.41806 112.023 9.47111 111.908 9.5102C111.81 9.54371 111.704 9.56046 111.601 9.56325C111.445 9.57442 111.294 9.50741 111.196 9.38455M56.352 18.4396C56.352 18.744 56.3324 19.0511 56.285 19.3527C56.2571 19.5928 56.1565 19.8218 55.9974 20.006C55.6009 20.3271 55.0341 20.3271 54.6376 20.006C54.4756 19.8218 54.3751 19.5956 54.3444 19.3527C54.2969 19.0511 54.2746 18.7468 54.2774 18.4396V13.2322H53.2387V18.3894C53.2303 18.8696 53.2862 19.3499 53.4034 19.8162C53.4928 20.1931 53.7106 20.5282 54.0177 20.7627C54.403 21.0112 54.8582 21.1285 55.3133 21.0978C55.7684 21.1285 56.2208 21.0112 56.6061 20.7627C56.9104 20.5254 57.1282 20.1931 57.2148 19.8162C57.3321 19.3499 57.3851 18.8696 57.3795 18.3894V13.2322H56.352V18.4396ZM61.1127 15.5581C60.9703 15.4352 60.786 15.371 60.5989 15.385C60.342 15.385 60.0852 15.4464 59.859 15.5665C59.6356 15.6865 59.429 15.8345 59.2447 16.0076V15.4604H58.2172V21.0112H59.2447V16.5354C59.3564 16.4404 59.4765 16.3594 59.6049 16.2896C59.7138 16.2254 59.8394 16.1919 59.9651 16.1891C60.1047 16.1696 60.2443 16.2338 60.3197 16.3511C60.3839 16.4963 60.4146 16.6526 60.4062 16.8118V21.0084H61.4338V16.513C61.4338 16.3343 61.4086 16.1556 61.3612 15.9853C61.3193 15.8206 61.2327 15.6726 61.1099 15.5525M62.277 13.5561H63.3045V14.6311H62.277V13.5561ZM62.277 15.4576H63.3045V21.0084H62.277V15.4576ZM65.5439 19.9251L64.8626 15.4576H63.8267L64.9212 21.0112H66.1805L67.236 15.4604H66.2363L65.5439 19.9279V19.9251ZM70.2459 15.6698C69.9472 15.4548 69.5814 15.3515 69.2128 15.3822C68.8638 15.3626 68.5176 15.4492 68.2188 15.6307C67.9703 15.8094 67.7916 16.0719 67.7134 16.3706C67.6073 16.7727 67.5598 17.1859 67.5682 17.5992V18.8668C67.5598 19.2773 67.6073 19.6849 67.7078 20.0814C67.7804 20.3802 67.9563 20.6455 68.202 20.8297C68.5036 21.0168 68.8554 21.1062 69.21 21.0838C69.7796 21.0838 70.1845 20.9247 70.419 20.6036C70.6759 20.2155 70.8016 19.752 70.7737 19.2885V19.0762H69.774V19.4113C69.774 19.5733 69.7629 19.7352 69.7322 19.8972C69.7126 20.0172 69.654 20.1289 69.5674 20.2155C69.4697 20.2964 69.3441 20.3355 69.2156 20.3271C69.0872 20.3327 68.9615 20.2964 68.8554 20.2266C68.7549 20.1484 68.6851 20.0396 68.6544 19.9139C68.6069 19.7352 68.5874 19.5509 68.593 19.3666V18.2526H70.782V17.803C70.7876 17.3674 70.7513 16.9318 70.6759 16.5018C70.6285 16.1835 70.4749 15.8904 70.2376 15.6698M69.7713 17.6969H68.5902V17.3981C68.5846 17.1468 68.6013 16.8928 68.6376 16.6443C68.6516 16.4991 68.7158 16.3622 68.8163 16.2561C68.9252 16.1724 69.0592 16.1305 69.1961 16.1417C69.3329 16.1305 69.4697 16.1724 69.5758 16.2617C69.6652 16.3594 69.721 16.4851 69.735 16.6163C69.7629 16.809 69.7768 17.0016 69.774 17.1971V17.6969H69.7713ZM73.7781 15.3906C73.5631 15.3933 73.3508 15.452 73.1638 15.5637C72.9041 15.7368 72.6947 15.9713 72.5495 16.245V15.4576H71.522V21.0084H72.5467V16.9542C72.6388 16.7811 72.7729 16.6359 72.9348 16.527C73.0688 16.4516 73.2196 16.4125 73.3732 16.4153C73.4737 16.4153 73.577 16.4265 73.6747 16.4488C73.7641 16.4683 73.8534 16.4963 73.94 16.5298V15.3989C73.9093 15.3933 73.8786 15.3906 73.8479 15.3906H73.7781ZM76.7685 18.5597C76.6512 18.4201 76.5256 18.2888 76.3887 18.166L75.4087 17.2641C75.3166 17.1887 75.2439 17.0966 75.1937 16.9905C75.1518 16.9011 75.1323 16.8062 75.1323 16.7085C75.1323 16.5605 75.1825 16.4181 75.2803 16.3092C75.3808 16.1975 75.5288 16.1361 75.6795 16.1417C75.808 16.1361 75.9364 16.178 76.0341 16.2617C76.1319 16.3539 76.2045 16.4683 76.2464 16.5968C76.3022 16.7615 76.3413 16.9291 76.3608 17.1022L77.0533 16.8425C77.031 16.4655 76.8913 16.1026 76.654 15.8094C76.4027 15.5162 76.0258 15.357 75.6404 15.3822C75.3808 15.3766 75.1211 15.4296 74.8866 15.5413C74.6771 15.6419 74.504 15.801 74.3867 16.002C74.1438 16.4879 74.1494 17.0631 74.4063 17.5433C74.5403 17.7528 74.7023 17.9398 74.8921 18.1018L75.8415 18.9171C75.9783 19.026 76.0956 19.16 76.1877 19.3108C76.2603 19.442 76.2966 19.5928 76.2938 19.7436C76.3022 19.8999 76.2491 20.0535 76.1486 20.1708C76.0369 20.2825 75.8834 20.3411 75.727 20.3299C75.5148 20.3411 75.311 20.2406 75.1881 20.0647C75.0429 19.8246 74.9536 19.5537 74.9284 19.2717L74.074 19.5314C74.0936 19.9502 74.2583 20.3523 74.5431 20.6594C74.8307 20.9498 75.23 21.1062 75.6377 21.0866C75.9141 21.0922 76.1905 21.0392 76.4446 20.9275C76.668 20.827 76.855 20.6622 76.9835 20.4528C77.1175 20.2127 77.1845 19.939 77.1761 19.6654C77.1817 19.4504 77.1426 19.2382 77.0617 19.0399C76.9891 18.8668 76.8885 18.7049 76.7685 18.5597ZM77.8016 13.5561H78.8291V14.6311H77.8016V13.5561ZM77.8016 15.4576H78.8291V21.0084H77.8016V15.4576ZM81.0294 13.8325H80.0018V15.4548H79.4155V16.1389H80.0018V19.7603C79.9963 20.0005 80.0381 20.2378 80.1219 20.4612C80.1973 20.6538 80.3313 20.8158 80.5072 20.9219C80.7194 21.0392 80.9596 21.095 81.2025 21.0838C81.3309 21.0838 81.4482 21.0782 81.5571 21.0699C81.666 21.0615 81.7833 21.0447 81.9117 21.028V20.2685C81.8475 20.2741 81.7833 20.2825 81.7163 20.2881C81.6492 20.2936 81.5906 20.2964 81.5375 20.2964C81.3896 20.316 81.2388 20.2629 81.1355 20.1568C81.0517 20.0172 81.0154 19.8525 81.0294 19.6905V16.1361H81.9229V15.4548H81.0294V13.8297V13.8325ZM83.8439 19.6068L83.0956 15.4576H82.0597L83.1738 20.182C83.224 20.4053 83.2715 20.6175 83.319 20.8158C83.3525 20.9414 83.3748 21.0699 83.386 21.2011C83.3916 21.296 83.3553 21.3882 83.291 21.4552C83.1989 21.5278 83.09 21.5697 82.9727 21.5808C82.7745 21.606 82.5762 21.6171 82.378 21.6143V22.4017H82.5037C82.7968 22.4073 83.09 22.371 83.372 22.2956C83.5954 22.2342 83.7992 22.1169 83.964 21.955C84.1287 21.7763 84.2376 21.5557 84.2795 21.3156L85.6058 15.4576H84.5699L83.8495 19.6068H83.8439ZM91.1874 13.4304C90.8355 13.235 90.4335 13.1428 90.0314 13.1624C89.5819 13.1345 89.1323 13.2489 88.7498 13.4835C88.4398 13.7041 88.2165 14.0252 88.1159 14.391C87.9903 14.8377 87.9289 15.3012 87.9372 15.7647V18.5122C87.9317 18.9534 87.9903 19.3946 88.1159 19.819C88.2221 20.1903 88.4426 20.517 88.7498 20.7516C89.1267 21.0029 89.5791 21.1257 90.0314 21.0978C90.4502 21.1229 90.8663 21.0168 91.2237 20.7962C91.5113 20.5896 91.7207 20.2908 91.8184 19.9502C91.9413 19.5425 91.9971 19.1209 91.9915 18.6965V18.1213H90.964V18.6993C90.964 18.9701 90.95 19.2382 90.9165 19.5062C90.897 19.7073 90.8132 19.8999 90.6764 20.0479C90.5005 20.1959 90.2715 20.2657 90.0426 20.2462C89.8332 20.2573 89.6265 20.2071 89.4478 20.101C89.2859 19.9837 89.1742 19.8106 89.1295 19.6151C89.0569 19.3108 89.0234 19.0009 89.0318 18.6881V15.6056C89.029 15.3235 89.0485 15.0443 89.0932 14.7651C89.1239 14.3128 89.5148 13.9721 89.9672 14.0028C89.9923 14.0028 90.0146 14.0084 90.0398 14.0112C90.2687 13.9889 90.4977 14.0531 90.682 14.1927C90.8188 14.3323 90.9025 14.5138 90.9165 14.7065C90.9472 14.9606 90.9612 15.2146 90.9584 15.4715V16.0188H91.9859V15.4045C91.9943 14.9969 91.9329 14.5892 91.7989 14.2039C91.6872 13.8856 91.4694 13.6147 91.1846 13.436M95.2109 15.6363C94.9233 15.4548 94.5855 15.3654 94.2448 15.385C93.9042 15.3654 93.5635 15.4548 93.2759 15.6363C93.033 15.8094 92.8571 16.0607 92.7705 16.3483C92.6644 16.7001 92.6142 17.0659 92.6226 17.4344V19.0483C92.6142 19.4169 92.6644 19.7827 92.7705 20.1345C92.8543 20.4221 93.033 20.6706 93.2759 20.8465C93.5663 21.028 93.9042 21.1145 94.2448 21.095C94.5855 21.1145 94.9233 21.028 95.2109 20.8465C95.451 20.6706 95.6269 20.4221 95.7107 20.1345C95.8168 19.7827 95.8671 19.4169 95.8587 19.0483V17.4344C95.8643 17.0659 95.814 16.7001 95.7107 16.3483C95.6269 16.0635 95.451 15.8122 95.2109 15.6391M94.8312 19.1153C94.8312 19.3192 94.8228 19.5174 94.806 19.7073C94.7977 19.8692 94.7502 20.0256 94.6608 20.1624C94.5603 20.2881 94.4012 20.3523 94.242 20.3355C94.0801 20.3523 93.9237 20.2881 93.8204 20.1624C93.731 20.0256 93.678 19.8692 93.6724 19.7073C93.6557 19.5174 93.6473 19.322 93.6501 19.1153V17.3758C93.6501 17.1664 93.6585 16.9681 93.6724 16.7811C93.6808 16.6191 93.7338 16.4628 93.8232 16.3259C93.9237 16.2003 94.0829 16.1333 94.2448 16.1472C94.4068 16.1305 94.5631 16.1975 94.6636 16.3259C94.7502 16.4628 94.8005 16.6191 94.8088 16.7811C94.8256 16.9681 94.834 17.1664 94.834 17.3758V19.1125L94.8312 19.1153ZM101.613 15.4995C101.465 15.4129 101.295 15.3682 101.122 15.3682C100.868 15.3682 100.617 15.4241 100.388 15.5358C100.134 15.6642 99.913 15.8457 99.7398 16.0691C99.698 15.8485 99.5723 15.653 99.388 15.5218C99.2233 15.4185 99.0306 15.3654 98.8352 15.3682C98.595 15.3682 98.3605 15.4213 98.1427 15.5218C97.9082 15.6335 97.6988 15.7926 97.5284 15.9937V15.4659H96.5763V21.0168H97.5284V16.4935C97.6513 16.3594 97.7965 16.2478 97.9556 16.1612C98.0897 16.0858 98.2404 16.0439 98.394 16.0411C98.5252 16.0356 98.6537 16.0858 98.7458 16.1807C98.8519 16.3399 98.8966 16.5326 98.8743 16.7224V21.014H99.8152V16.4907C99.9353 16.3567 100.078 16.245 100.237 16.1584C100.374 16.083 100.524 16.0411 100.678 16.0383C100.809 16.0328 100.938 16.083 101.03 16.178C101.136 16.3371 101.181 16.5298 101.158 16.7196V21.0112H102.099V16.6498C102.11 16.3957 102.063 16.1417 101.965 15.9043C101.893 15.734 101.767 15.5888 101.611 15.4911M107.921 15.4911C107.773 15.4045 107.603 15.3598 107.432 15.3598C107.178 15.3598 106.927 15.4157 106.698 15.5274C106.444 15.6558 106.223 15.8373 106.05 16.0607C106.008 15.8401 105.883 15.6446 105.698 15.5134C105.534 15.4101 105.341 15.3571 105.146 15.3598C104.905 15.3598 104.671 15.4129 104.453 15.5134C104.219 15.6251 104.009 15.7843 103.839 15.9853V15.4576H102.889V21.0084H103.839V16.4851C103.962 16.3511 104.107 16.2394 104.266 16.1528C104.4 16.0774 104.551 16.0356 104.704 16.0328C104.836 16.0272 104.964 16.0774 105.053 16.1724C105.159 16.3315 105.204 16.5242 105.182 16.7141V21.0057H106.123V16.4823C106.243 16.3483 106.385 16.2338 106.544 16.15C106.678 16.0746 106.832 16.0328 106.986 16.03C107.117 16.0244 107.245 16.0746 107.337 16.1696C107.443 16.3287 107.488 16.5214 107.466 16.7113V21.0029H108.407V16.6415C108.418 16.3874 108.37 16.1333 108.273 15.8959C108.2 15.7256 108.075 15.5804 107.918 15.4827M109.261 15.4492H110.289V21.0001H109.261V15.4492ZM109.261 13.5477H110.289V14.6227H109.261V13.5477ZM113.597 18.5513C113.48 18.4117 113.352 18.2805 113.218 18.1576L112.238 17.2557C112.146 17.1804 112.073 17.0882 112.023 16.9821C111.981 16.8928 111.961 16.7978 111.961 16.7001C111.961 16.5521 112.012 16.4097 112.109 16.3008C112.21 16.1891 112.358 16.1277 112.509 16.1333C112.637 16.1277 112.765 16.1696 112.863 16.2533C112.961 16.3455 113.033 16.46 113.075 16.5884C113.131 16.7531 113.17 16.9207 113.19 17.0938L113.882 16.8341C113.86 16.4572 113.72 16.0942 113.483 15.801C113.232 15.5078 112.855 15.3487 112.469 15.3738C112.21 15.3682 111.95 15.4213 111.716 15.533C111.506 15.6335 111.333 15.7926 111.216 15.9937C110.973 16.4795 110.978 17.0547 111.235 17.535C111.369 17.7444 111.534 17.9314 111.721 18.0934L112.673 18.9087C112.81 19.0176 112.927 19.1516 113.019 19.3024C113.092 19.4336 113.128 19.5844 113.126 19.7352C113.134 19.8916 113.081 20.0451 112.98 20.1624C112.869 20.2741 112.715 20.3327 112.559 20.3216C112.347 20.3327 112.143 20.2322 112.02 20.0563C111.875 19.8134 111.788 19.5453 111.76 19.2633L110.906 19.523C110.925 19.9418 111.09 20.3439 111.375 20.651C111.662 20.9414 112.062 21.0978 112.469 21.0782C112.746 21.0838 113.022 21.0308 113.276 20.9191C113.5 20.8186 113.687 20.6538 113.812 20.4444C113.949 20.2043 114.014 19.9307 114.005 19.657C114.011 19.442 113.972 19.2298 113.891 19.0316C113.818 18.8585 113.718 18.6965 113.597 18.5513ZM116.976 18.5513C116.859 18.4117 116.73 18.2805 116.596 18.1576L115.616 17.2557C115.524 17.1804 115.451 17.0882 115.401 16.9821C115.359 16.8928 115.34 16.7978 115.34 16.7001C115.34 16.5521 115.39 16.4097 115.488 16.3008C115.588 16.1891 115.736 16.1277 115.887 16.1333C116.016 16.1277 116.144 16.1696 116.242 16.2533C116.339 16.3455 116.412 16.46 116.454 16.5884C116.51 16.7531 116.549 16.9207 116.568 17.0938L117.261 16.8341C117.238 16.4572 117.099 16.0942 116.862 15.801C116.61 15.5078 116.233 15.3487 115.848 15.3738C115.588 15.3682 115.329 15.4213 115.094 15.533C114.885 15.6335 114.712 15.7926 114.594 15.9937C114.351 16.4795 114.357 17.0547 114.614 17.535C114.748 17.7444 114.913 17.9314 115.1 18.0934L116.052 18.9087C116.189 19.0176 116.306 19.1516 116.398 19.3024C116.471 19.4336 116.507 19.5844 116.504 19.7352C116.513 19.8916 116.459 20.0451 116.359 20.1624C116.247 20.2741 116.094 20.3327 115.937 20.3216C115.725 20.3327 115.521 20.2322 115.398 20.0563C115.253 19.8134 115.167 19.5453 115.139 19.2633L114.282 19.523C114.301 19.9418 114.466 20.3439 114.751 20.651C115.038 20.9414 115.438 21.0978 115.845 21.0782C116.122 21.0838 116.398 21.0308 116.652 20.9191C116.876 20.8186 117.063 20.6538 117.188 20.4444C117.325 20.2043 117.389 19.9307 117.381 19.657C117.386 19.442 117.347 19.2298 117.266 19.0316C117.194 18.8585 117.093 18.6965 116.973 18.5513M118.006 13.5477H119.034V14.6227H118.006V13.5477ZM118.006 15.4492H119.034V21.0001H118.006V15.4492ZM122.418 15.6223C122.13 15.4408 121.793 15.3515 121.452 15.371C121.111 15.3515 120.771 15.4408 120.483 15.6223C120.24 15.7954 120.064 16.0467 119.978 16.3343C119.872 16.6861 119.821 17.0519 119.83 17.4205V19.0344C119.821 19.4029 119.872 19.7687 119.978 20.1205C120.061 20.4081 120.24 20.6566 120.483 20.8325C120.773 21.014 121.111 21.1006 121.452 21.081C121.793 21.1006 122.13 21.014 122.418 20.8325C122.658 20.6566 122.834 20.4081 122.918 20.1205C123.024 19.7687 123.074 19.4029 123.066 19.0344V17.4205C123.071 17.0519 123.021 16.6861 122.918 16.3343C122.834 16.0495 122.658 15.7982 122.418 15.6251M122.038 19.1014C122.038 19.3052 122.03 19.5035 122.013 19.6933C122.005 19.8553 121.957 20.0116 121.868 20.1484C121.767 20.2741 121.608 20.3383 121.449 20.3216C121.287 20.3383 121.131 20.2741 121.028 20.1484C120.938 20.0116 120.885 19.8553 120.88 19.6933C120.863 19.5035 120.854 19.308 120.857 19.1014V17.3618C120.857 17.1524 120.866 16.9542 120.88 16.7671C120.888 16.6052 120.938 16.446 121.028 16.312C121.128 16.1863 121.287 16.1193 121.449 16.1333C121.611 16.1165 121.767 16.1835 121.868 16.312C121.955 16.4488 122.005 16.6052 122.013 16.7671C122.03 16.9542 122.038 17.1524 122.038 17.3618V19.1014ZM126.93 15.9797C126.886 15.815 126.799 15.667 126.679 15.5469C126.536 15.4241 126.352 15.3598 126.165 15.3738C125.908 15.3738 125.651 15.4352 125.425 15.5553C125.202 15.6754 124.995 15.8233 124.811 15.9965V15.4492H123.783V21.0001H124.811V16.5242C124.923 16.4293 125.043 16.3483 125.171 16.2785C125.28 16.2143 125.406 16.1807 125.531 16.178C125.671 16.1584 125.811 16.2226 125.886 16.3399C125.95 16.4851 125.981 16.6415 125.972 16.8006V20.9973H127V16.5018C127 16.3231 126.975 16.1444 126.927 15.9741M45.9204 24.5713L46.0321 0L47.3723 0.00558438L47.2606 24.5769L45.9204 24.5713Z" fill="white"/>
</svg>
